%
M48
M72
T01C0.0240
T02C0.0394
%
T01
X11680Y3930
X21180Y3930
X21680Y6430
T02
X3680Y1430
X4680Y1430
X5680Y1430
X6680Y1430
X6680Y2430
X5680Y2430
X4680Y2430
X3680Y2430
X2680Y2930
X1680Y2930
X1680Y1930
X1680Y3930
X2680Y3930
X2680Y4930
X1680Y4930
X1680Y5930
X2680Y5930
X2680Y6930
X1680Y6930
X1680Y7930
X2680Y7930
X3680Y8430
X4680Y8430
X5680Y8430
X6680Y8430
X7680Y8430
X8680Y8430
X9680Y8430
X10680Y8430
X11680Y8430
X12680Y8430
X13680Y8430
X14680Y8430
X16180Y7930
X16180Y8930
X17680Y8930
X18680Y8930
X19680Y8930
X21180Y8930
X23180Y8930
X23180Y7930
X23180Y6930
X21180Y6930
X19680Y6930
X17680Y6930
X18680Y5930
X18180Y4930
X17180Y4930
X16180Y4930
X19180Y4930
X20180Y4930
X21180Y4930
X22180Y4930
X23180Y4930
X23180Y5930
X14680Y2430
X13680Y2430
X12680Y2430
X11680Y2430
X10680Y2430
X9680Y2430
X8680Y2430
X7680Y2430
X9680Y1430
X10680Y1430
X11680Y1430
X12680Y1430
X13680Y1430
X14680Y1430
X16180Y1930
X17180Y1930
X18180Y1930
X19180Y1930
X20180Y1930
X21180Y1930
X22180Y1930
X23180Y1930
X12180Y7430
X11180Y7430
X8180Y7430
X7180Y7430
X1680Y8930
M30
