G75*
%MOIN*%
%OFA0B0*%
%FSLAX24Y24*%
%IPPOS*%
%LPD*%
%AMOC8*
5,1,8,0,0,1.08239X$1,22.5*
%
%ADD10OC8,0.0594*%
%ADD11C,0.0100*%
%ADD12OC8,0.0400*%
D10*
X001267Y001125D03*
X003267Y000625D03*
X004267Y000625D03*
X005267Y000625D03*
X006267Y000625D03*
X006267Y001625D03*
X007267Y001625D03*
X008267Y001625D03*
X009267Y001625D03*
X010267Y001625D03*
X011267Y001625D03*
X012267Y001625D03*
X013267Y001625D03*
X014267Y001625D03*
X015767Y001125D03*
X016767Y001125D03*
X017767Y001125D03*
X018767Y001125D03*
X019767Y001125D03*
X020767Y001125D03*
X021767Y001125D03*
X022767Y001125D03*
X022767Y004125D03*
X021767Y004125D03*
X020767Y004125D03*
X019767Y004125D03*
X018767Y004125D03*
X017767Y004125D03*
X016767Y004125D03*
X015767Y004125D03*
X018267Y005125D03*
X019267Y006125D03*
X020767Y006125D03*
X022767Y006125D03*
X022767Y005125D03*
X022767Y007125D03*
X022767Y008125D03*
X020767Y008125D03*
X019267Y008125D03*
X018267Y008125D03*
X017267Y008125D03*
X015767Y008125D03*
X014267Y007625D03*
X013267Y007625D03*
X012267Y007625D03*
X011267Y007625D03*
X010267Y007625D03*
X009267Y007625D03*
X008267Y007625D03*
X007267Y007625D03*
X006267Y007625D03*
X005267Y007625D03*
X004267Y007625D03*
X003267Y007625D03*
X002267Y007125D03*
X001267Y007125D03*
X001267Y008125D03*
X001267Y006125D03*
X002267Y006125D03*
X002267Y005125D03*
X001267Y005125D03*
X001267Y004125D03*
X002267Y004125D03*
X002267Y003125D03*
X001267Y003125D03*
X001267Y002125D03*
X002267Y002125D03*
X003267Y001625D03*
X004267Y001625D03*
X005267Y001625D03*
X009267Y000625D03*
X010267Y000625D03*
X011267Y000625D03*
X012267Y000625D03*
X013267Y000625D03*
X014267Y000625D03*
X017267Y006125D03*
X015767Y007125D03*
X011767Y006625D03*
X010767Y006625D03*
X007767Y006625D03*
X006767Y006625D03*
D11*
X004267Y007625D02*
X003767Y007125D01*
X015767Y007125D01*
X016267Y006625D02*
X016267Y008125D01*
X015767Y008125D01*
X001267Y008125D01*
X001767Y007625D01*
X003267Y007625D01*
X003767Y007125D02*
X003267Y006625D01*
X001767Y006625D01*
X001267Y007125D01*
X002267Y006125D02*
X001267Y005125D01*
X002267Y005125D02*
X001267Y004125D01*
X002267Y004125D02*
X001267Y003125D01*
X002267Y003125D02*
X001267Y002125D01*
X002267Y002125D02*
X001267Y001125D01*
X003267Y000625D02*
X003767Y001125D01*
X003767Y002125D01*
X006767Y002125D01*
X010767Y006125D01*
X015767Y006125D01*
X016267Y006625D01*
X017267Y006125D02*
X017267Y005125D01*
X013767Y005125D01*
X010267Y001625D01*
X011267Y001625D02*
X011267Y002125D01*
X013267Y004125D01*
X015767Y004125D01*
X016767Y004125D02*
X017767Y004125D01*
X018267Y004625D01*
X020267Y004625D01*
X020267Y007625D01*
X018767Y007625D01*
X018267Y008125D01*
X017267Y008125D02*
X016267Y008125D01*
X020267Y007625D02*
X021767Y007625D01*
X021767Y004125D01*
X022267Y004625D02*
X022767Y004125D01*
X022267Y004625D02*
X022267Y006125D01*
X022767Y006125D01*
X021267Y005625D02*
X020767Y006125D01*
X020767Y004625D01*
X021267Y004625D01*
X021267Y001625D01*
X020767Y001125D01*
X020267Y000625D01*
X018267Y000625D01*
X016267Y000625D01*
X016767Y001125D01*
X017767Y001125D02*
X019767Y003125D01*
X020767Y003125D01*
X019767Y004125D02*
X019267Y003625D01*
X013767Y003625D01*
X012267Y002125D01*
X011767Y002125D01*
X011767Y001125D01*
X012767Y001125D01*
X013267Y001625D01*
X012767Y002125D02*
X012267Y001625D01*
X012767Y002125D02*
X014767Y002125D01*
X015767Y001125D01*
X015267Y000625D02*
X014767Y001125D01*
X013767Y001125D01*
X013267Y000625D01*
X015267Y000625D02*
X016267Y000625D01*
X018267Y000625D02*
X018767Y001125D01*
X021267Y001625D02*
X022267Y001625D01*
X022767Y001125D01*
X022267Y000625D02*
X021767Y001125D01*
X022267Y000625D02*
X023267Y000625D01*
X023267Y005125D01*
X022767Y005125D01*
X020767Y004125D02*
X020267Y004625D01*
X018267Y005125D02*
X017267Y005125D01*
X011267Y003125D02*
X008767Y003125D01*
X007267Y001625D01*
X006267Y001625D02*
X005767Y001125D01*
X004767Y001125D01*
X004267Y000625D01*
X006267Y000625D02*
X006767Y000625D01*
X006767Y002125D01*
X008267Y001625D02*
X008767Y001125D01*
X010767Y001125D01*
X011267Y000625D01*
X010267Y000625D02*
X009267Y000625D01*
X021767Y007625D02*
X021767Y008125D01*
X020767Y008125D01*
D12*
X021267Y005625D03*
X020767Y003125D03*
X011267Y003125D03*
M02*
